<svg xmlns="http://www.w3.org/2000/svg" viewBox="0 0 300 300"><defs><style>.cls-1{isolation:isolate;}.cls-2{fill:#8f90a0;}.cls-3{fill:#dddde5;}.cls-4,.cls-8{fill:#b2b2bf;}.cls-5{fill:#fff;}.cls-6{opacity:0.6;}.cls-7{opacity:0.5;}.cls-13,.cls-14,.cls-8{mix-blend-mode:multiply;}.cls-9{fill:#ffebd0;}.cls-10{fill:#f3921a;}.cls-11{fill:#454560;}.cls-12,.cls-13{fill:#1b1934;}.cls-14{fill:#f9b450;opacity:0.4;}</style></defs><title>SDCRT-1132_Illus_Launch_04_WebCarHireFunnel_KnowTheScore</title><g class="cls-1"><g id="Layer_1" data-name="Layer 1"><path class="cls-2" d="M90,57.47,68,32.69a16.76,16.76,0,0,0-8.13,2.5L84.42,62.07Z"/><polygon class="cls-3" points="86.46 55.49 61.52 76.19 62.36 81.29 89.47 58.79 86.46 55.49"/><path class="cls-4" d="M254,261.26h0a24.59,24.59,0,0,1-33.28-2.08L81.21,107.92c-8.55-9.23,4.58-9.64,14.33-17.73h0c9.76-8.09,12.59-20.92,21.14-11.69L256.17,229.77A21.55,21.55,0,0,1,254,261.26Z"/><path class="cls-4" d="M65.7,33.13,89.49,58.82l-27,22.49L39.57,54.8a36,36,0,0,0,6.74,39.26c14.43,15.58,39.48,17.14,56,3.49S120.38,60.19,106,44.6C95.62,33.45,79.87,29.49,65.7,33.13Z"/><polygon class="cls-5" points="234.86 226.38 223.79 235.56 226.66 249.22 240.59 253.71 251.66 244.53 248.79 230.86 234.86 226.38"/><path class="cls-2" d="M248.79,230.86l-13.93-4.48-3.55,2.94c0,.12,0,.24.05.36l.12-.1,13.93,4.48,2.8,13.33,3.45-2.86Z"/><path class="cls-3" d="M229.35,247.52l-2.85-13.6-.47-.43-3.35,2.77,2.87,13.66,13.93,4.48,3.15-2.61Z"/><path class="cls-3" d="M257.06,228.06,117.58,76.8a15.66,15.66,0,0,0-1.72-1.62,36,36,0,0,0-9-32.28c-10-10.8-24.49-14-38.73-9.66-.46.14-1.81.78-2.26,1l2.58,2.54.26-.1A24.51,24.51,0,0,1,75,35.27c11-.9,19.77,1.14,28,10a36,36,0,0,1,9,32.28,15.66,15.66,0,0,1,1.72,1.62L253.26,230.46a21.56,21.56,0,0,1-2.19,31.5l-.62.49a24.16,24.16,0,0,0,4.42-2.89A21.56,21.56,0,0,0,257.06,228.06Z"/><path class="cls-2" d="M225.66,254.18,86.18,102.92c-.41-.45-.76-.87-1.07-1.27A40.81,40.81,0,0,1,51.28,89.06a36,36,0,0,1-9.2-31.32l-2.77-3A36,36,0,0,0,46.05,94,40.81,40.81,0,0,0,79.88,106.6c.31.4.66.82,1.07,1.26L220.43,259.13a24.6,24.6,0,0,0,33.28,2.08h0a22.59,22.59,0,0,0,3.53-3.67A24.63,24.63,0,0,1,225.66,254.18Z"/><path class="cls-3" d="M62.36,81.29l.85-5.9L40.84,51.75a21.19,21.19,0,0,0-1.94,4.44Z"/><g class="cls-6"><g class="cls-7"><polygon class="cls-5" points="209.59 236.39 195.04 220.79 196.28 161.88 210.83 178.77 209.59 236.39"/></g><g class="cls-7"><polygon class="cls-5" points="139.26 161.09 118.46 138.1 119.86 85.22 140.66 107.59 139.26 161.09"/><polygon class="cls-5" points="167.25 190.56 152.7 174.83 154.03 122.04 168.58 138.43 167.25 190.56"/></g></g><path class="cls-8" d="M174.71,139.18l-9.62,9.88-4.52-3.75a3.74,3.74,0,0,0-5,.31l-6.88,7.43a3.26,3.26,0,0,0,.33,4.77l.34.28-3.55,3.83a3.65,3.65,0,0,0-4.94.31l-5,5.15,29.3,32.2,1.49-15.91a3.21,3.21,0,0,0-.32-4.69h0l3.55-3.83.62.52a3.73,3.73,0,0,0,5-.32l6.88-7.42a3.27,3.27,0,0,0-.33-4.77l-4.79-4,1.46-14.81Z"/><polygon class="cls-9" points="153.84 162.56 140.75 151.69 223.62 67.19 230.7 59.55 236.77 48.11 260.37 28.35 267.49 34.25 249.86 58.97 237.92 65.97 231.23 73.19 153.84 162.56"/><polygon class="cls-10" points="69.1 258.08 48.54 241.02 60.56 228.05 81.12 245.11 69.1 258.08"/><polygon class="cls-10" points="150.46 173.25 129.9 156.19 141.93 143.22 162.48 160.28 150.46 173.25"/><path class="cls-11" d="M75.54,251.14,55,234.08a3.2,3.2,0,0,1-.33-4.68l74.72-77.66a3.66,3.66,0,0,1,4.95-.31l20.56,17.06a3.2,3.2,0,0,1,.32,4.68L80.48,250.83A3.65,3.65,0,0,1,75.54,251.14Z"/><path class="cls-11" d="M60.09,269l-17-16.69c-1.48-1.23-7-3.7-5.7-5.1l7.71-8.26a3.73,3.73,0,0,1,5-.32l21.52,17.86a3.26,3.26,0,0,1,.33,4.77l-7.75,8.6C63,271.24,61.57,270.2,60.09,269Z"/><path class="cls-11" d="M159,165.17l-21.51-17.86a3.26,3.26,0,0,1-.33-4.77l6.88-7.42a3.72,3.72,0,0,1,5-.31l21.51,17.86a3.26,3.26,0,0,1,.33,4.77l-6.88,7.42A3.72,3.72,0,0,1,159,165.17Z"/><path class="cls-8" d="M166.33,149.09h.11c-2.3-1.87-4.39-3.91-6.83-5.6L49,259.74,60.09,269c1.48,1.22,2.87,2.26,4.17.86l7.75-8.6a3.26,3.26,0,0,0-.33-4.77l-.62-.51,4.47-4.82h0a3.65,3.65,0,0,0,4.94-.31l74.72-77.66a3.2,3.2,0,0,0-.32-4.68h0l3.55-3.83.61.51a3.72,3.72,0,0,0,5-.31l6.88-7.42a3.26,3.26,0,0,0-.33-4.77Z"/><path class="cls-12" d="M61.68,239l63.13-65.16a2.89,2.89,0,0,0-.29-4.21,3.29,3.29,0,0,0-4.45.27L56.94,235Z"/><path class="cls-13" d="M74.33,249.48l63.13-65.16a2.89,2.89,0,0,0-.29-4.21,3.29,3.29,0,0,0-4.45.27L69.59,245.54Z"/><polygon class="cls-14" points="267.33 34.65 263.48 31.49 159.66 143.54 167.06 149.74 231.65 72.79 237.72 66.17 249.85 59.47 267.33 34.65"/><ellipse class="cls-12" cx="50.2" cy="258.94" rx="3.38" ry="17.4" transform="translate(-177.22 125.34) rotate(-48.6)"/></g></g></svg>