<svg xmlns="http://www.w3.org/2000/svg" viewBox="0 0 300 300"><defs><style>.cls-1{isolation:isolate;}.cls-13,.cls-2,.cls-3{fill:#cdcdd7;}.cls-11,.cls-3{opacity:0.6;}.cls-10,.cls-13,.cls-3{mix-blend-mode:multiply;}.cls-4{fill:#8f90a0;}.cls-5{fill:#00a698;}.cls-6{fill:#78c6c1;}.cls-7{fill:#dddde5;}.cls-8{fill:#f5a996;}.cls-9{fill:#ffe7e0;}.cls-10{fill:#b2b2bf;opacity:0.8;}.cls-12{fill:#ef795c;}</style></defs><title>SDCRT-1132_Illus_Launch_04_WebCarHireFunnel_StayOnTrack</title><g class="cls-1"><g id="Layer_1" data-name="Layer 1"><rect class="cls-2" x="138.41" y="205.14" width="22" height="72.03"/><rect class="cls-3" x="150.81" y="205.14" width="10" height="72.03" transform="translate(311.62 482.31) rotate(180)"/><polygon class="cls-4" points="138.41 206.8 138.41 217.05 160.43 232.85 160.43 212.4 138.41 206.8"/><path class="cls-5" d="M149.41,24.5a91.78,91.78,0,1,0,91.77,91.78A91.78,91.78,0,0,0,149.41,24.5Zm0,166.9a75.13,75.13,0,1,1,75.12-75.12A75.13,75.13,0,0,1,149.41,191.4Z"/><path class="cls-6" d="M150,29.52a91.77,91.77,0,0,1,91.73,88.9c0-1,.05-1.91.05-2.87a91.78,91.78,0,0,0-183.55-.71h.22A91.78,91.78,0,0,1,150,29.52Z"/><path class="cls-7" d="M149.41,41.15a75.13,75.13,0,0,0-75.13,75.13c0,1.11,0,2.21.08,3.31a75.12,75.12,0,0,1,150.1,0c0-1.1.07-2.2.07-3.31A75.13,75.13,0,0,0,149.41,41.15Z"/><path class="cls-8" d="M118.29,106.1l13.64-1.17,9.26-23.33L142,70.69s6.23-6.24,10.52,4.29a36.45,36.45,0,0,1-1.41,27.86l40-1s17.14-4.29,20.26,4.28c0,0,1.56,7.41-17.53,6.63l-29.23,2s14-2.73,15.2,3.89c0,0,1.95,8.19-5.07,9.36a7,7,0,0,1,3.31,7.79,5.61,5.61,0,0,1-5.36,5.07s3.55,3.34.3,8.33a4.57,4.57,0,0,1-2.1,2.09c-1.68.8-3.34,1.32-8.43,1.66l-19.29,1.17s-9.74,1.07-17.14-5.75l-10.52.29-1.86-41.75Z"/><path class="cls-9" d="M142,70.69s3.89,1,3.11,10.52l-3.89.39Z"/><path class="cls-9" d="M200,101.74l.45,5.32a19.76,19.76,0,0,0,7.13-.16c1.2-.31,2.36-1.1,2.36-2.38v-.15a3.5,3.5,0,0,0-2.63-3.16A19.18,19.18,0,0,0,200,101.74Z"/><path class="cls-5" d="M149.41,207.47A91.77,91.77,0,0,1,57.7,119c0,1.1-.07,2.2-.07,3.31a91.78,91.78,0,1,0,183.55,0c0-1.11,0-2.21-.06-3.31A91.78,91.78,0,0,1,149.41,207.47Z"/><path class="cls-10" d="M149.41,206.88A91.77,91.77,0,0,1,57.7,118.42c0,1.1-.07,2.21-.07,3.32a91.78,91.78,0,0,0,183.55,0c0-1.11,0-2.22-.06-3.32A91.78,91.78,0,0,1,149.41,206.88Z"/><g class="cls-11"><path class="cls-12" d="M147.52,71.68s11.59,7-3,33.5l6.23-2c7.3-17.12,1.76-28.32,1.76-28.32-2-4.89-4.44-6.14-6.46-6.08A17.49,17.49,0,0,1,147.52,71.68Z"/><path class="cls-12" d="M210.77,104.7a1.23,1.23,0,0,1-.26.12c-1,1.59-5.46,6.27-21.34,5.62l-26.11,2.46.24.75a47,47,0,0,0,9.84.54l20.9-1.44c19.09.78,17.29-6.89,17.29-6.89A6.92,6.92,0,0,0,210.77,104.7Z"/><path class="cls-12" d="M173.82,140.54c3.9-.39,4.14-4.33,4.14-4.33.42-3.7-.14-4.73-.92-5.9.11.17-.21,1.19-.25,1.43a10.54,10.54,0,0,1-.31,1.35c-.66,2-1.62,4.26-3.53,5.48a10.19,10.19,0,0,1-2.89,1.21,14.52,14.52,0,0,1-2.07.39c-.7.09-3.35-.38-3.18.47-1.63-.12,2,0,3,.05a27.43,27.43,0,0,0,4.69.06C173.27,140.64,173.82,140.54,173.82,140.54Z"/><path class="cls-12" d="M172.85,148.78c-2.2,1.61-7.26,2-15.39,2.29l-14.6-.07c-5,0-9.6-1.52-12.61-5.45a7.64,7.64,0,0,1-1-2.12,6.75,6.75,0,0,0-4.19-4.17c-3.18-1.09-4.58-2.65-9.17-5.34l-1.22-.88.78,15.3,10.71.19c7.8,7,17.73,5.46,17.73,5.46l18.56-1.07a20,20,0,0,0,5.56-.73,8.3,8.3,0,0,0,5-2.88C172.8,149.33,173.09,148.77,172.85,148.78Z"/><path class="cls-12" d="M179.72,118.43a3.23,3.23,0,0,0-2.1-2.68,6.43,6.43,0,0,1,.39,3,9.42,9.42,0,0,1-2.79,6.82c-1,1-2.69,1.23-4,1.5-1,.19-4.53.31-5.65.55-.7.14,1,.36.44.58,2.81-.13,5.53.34,7.84,0,2.71-.46,5-1.75,5.9-4.47A10.49,10.49,0,0,0,179.72,118.43Z"/></g><polygon class="cls-13" points="116.29 106.54 121.31 148.44 113.71 148.73 110.2 118.92 113.71 106.74 116.29 106.54"/><polygon class="cls-6" points="96.37 105.76 115.08 104.98 117.41 157.59 97.15 156.43 96.37 105.76"/><path class="cls-13" d="M116.83,141.57s-5.55,9.06-19.58,7.3l-.1,7.55,20.26,1.17Z"/></g></g></svg>